<svg xmlns="http://www.w3.org/2000/svg" width="872" height="193.302" viewBox="0 0 872 193.302">
  <g id="FRISSON_-_REBRAND_-_FINAL-02" data-name="FRISSON - REBRAND - FINAL-02" transform="translate(-0.004)">
    <path id="Path_11" data-name="Path 11" d="M17.051,486.591a11.583,11.583,0,0,1-10.623,8.381c-4.569,0-7.361-3.811-6.135-8.381A11.578,11.578,0,0,1,10.92,478.21c4.824,0,7.428,3.556,6.135,8.381Z" transform="translate(0 -308.821)"/>
    <path id="Path_12" data-name="Path 12" d="M32.991,426.616A11.583,11.583,0,0,1,22.368,435c-4.569,0-7.361-3.811-6.135-8.381,1.293-4.824,6.124-8.636,10.694-8.636,4.824,0,7.357,3.808,6.064,8.636Z" transform="translate(-10.294 -269.925)"/>
    <path id="Path_13" data-name="Path 13" d="M53.138,128.111c-1.226,4.569-6.054,8.381-10.626,8.381-4.824,0-7.612-3.811-6.386-8.381A11.636,11.636,0,0,1,47,119.73C51.575,119.73,54.43,123.286,53.138,128.111Z" transform="translate(-23.14 -77.32)"/>
    <path id="Path_14" data-name="Path 14" d="M54.316,238.76c-4.569,0-9.4,3.8-10.694,8.632a7.77,7.77,0,0,0-.22,3.114,6.227,6.227,0,0,0,.85,2.324,5.733,5.733,0,0,1,1.187,2.4,8.822,8.822,0,0,1-2.72,6.656,31.05,31.05,0,0,0-2.812,2.735,11.011,11.011,0,0,0-1.93,3.85,7.53,7.53,0,0,0-.092,3.772,6.224,6.224,0,0,0,.716,1.721,5.952,5.952,0,0,1,.875,4.127c-.05.28-.113.563-.191.854a9.35,9.35,0,0,1-2.083,3.971c-.928.967-2,1.7-2.837,2.763a10.761,10.761,0,0,0-2.037,3.872c-1.286,4.824,1.495,8.632,6.064,8.632,4.831,0,9.4-3.811,10.694-8.632a7.575,7.575,0,0,0-.124-4.722c-.485-1.194-1.573-1.955-1.778-3.291a6.705,6.705,0,0,1,1.066-4.166c1.927-3.422,5.685-5.306,6.627-9.412a6.849,6.849,0,0,0-.2-3.985c-.326-.836-.85-1.576-1.229-2.391-.949-2.054-.021-4.69,1.176-6.472,1-1.481,2.561-2.317,3.67-3.68A11.022,11.022,0,0,0,60.38,247.4c1.293-4.831-1.243-8.632-6.064-8.632Z" transform="translate(-20.67 -154.188)"/>
    <path id="Path_15" data-name="Path 15" d="M97.1,187.621c-1.293,4.824-5.869,8.636-10.694,8.636-4.569,0-7.361-3.811-6.068-8.636,1.226-4.569,6.054-8.381,10.626-8.381C95.793,179.24,98.326,183.048,97.1,187.621Z" transform="translate(-51.677 -115.751)"/>
    <path id="Path_16" data-name="Path 16" d="M113.1,128.111a11.583,11.583,0,0,1-10.623,8.381c-4.569,0-7.361-3.811-6.135-8.381a11.582,11.582,0,0,1,10.626-8.381C111.794,119.73,114.4,123.286,113.1,128.111Z" transform="translate(-62.028 -77.32)"/>
    <path id="Path_17" data-name="Path 17" d="M156.1,8.381a11.967,11.967,0,0,1-10.949,8.636c-6.858,0-14.193,5.586-16.1,12.7A11.583,11.583,0,0,1,118.428,38.1c-4.569,0-7.361-3.808-6.135-8.381,1.293-4.824,6.124-8.636,10.694-8.636,7.109,0,14.193-5.586,16.1-12.7C140.312,3.811,145.14,0,149.712,0c4.824,0,7.612,3.811,6.39,8.381Z" transform="translate(-72.328 0)"/>
    <path id="Path_18" data-name="Path 18" d="M172.856,128.111a11.9,11.9,0,0,1-10.878,8.381c-4.569,0-7.361-3.811-6.135-8.381a11.582,11.582,0,0,1,10.626-8.381C171.294,119.73,174.153,123.286,172.856,128.111Z" transform="translate(-100.452 -77.32)"/>
    <path id="Path_19" data-name="Path 19" d="M232.368,128.111c-1.226,4.569-6.053,8.381-10.626,8.381-4.824,0-7.612-3.811-6.386-8.381a11.636,11.636,0,0,1,10.878-8.381C230.805,119.73,233.66,123.286,232.368,128.111Z" transform="translate(-138.884 -77.32)"/>
    <path id="Path_20" data-name="Path 20" d="M247.384,8.381A11.9,11.9,0,0,1,258.262,0c4.573,0,7.361,3.811,6.135,8.381-1.293,4.824-6.121,8.636-10.694,8.636-4.824,0-7.612-3.811-6.319-8.636Z" transform="translate(-159.55)"/>
    <path id="Path_21" data-name="Path 21" d="M322.223,358.48a12.161,12.161,0,0,0-10.878,8.381,7.57,7.57,0,0,0-.188,3.184A6.54,6.54,0,0,0,312.2,372.7a5.339,5.339,0,0,1,.744,4.325.19.19,0,0,1-.011.035,10.375,10.375,0,0,1-1.668,3.5,31.052,31.052,0,0,1-2.827,2.8,11.312,11.312,0,0,0-2.809,4.839,7.229,7.229,0,0,0-.11,3.485,6.192,6.192,0,0,0,.783,1.92,5.946,5.946,0,0,1,.924,4.282,10.361,10.361,0,0,1-1.651,3.879,30.766,30.766,0,0,1-3.057,3.1,10.59,10.59,0,0,0-2.543,4.413,6.4,6.4,0,0,0,6.383,8.381c3.687,0,7.329-2.487,9.344-5.508a7.8,7.8,0,0,0,1.378-5.168c-.227-1.959-1.495-3.447-1.913-5.313a7.358,7.358,0,0,1,1.661-5.813c.974-1.247,2.32-2.118,3.369-3.294a10.86,10.86,0,0,0,2.441-4.36,7.892,7.892,0,0,0-.043-4.548c-.577-1.707-1.615-3-1.559-4.888a7.647,7.647,0,0,1,2.235-5.072,40.017,40.017,0,0,0,3.078-2.922,10.781,10.781,0,0,0,2-3.9c1.222-4.569-1.566-8.381-6.139-8.381Z" transform="translate(-193.541 -231.501)"/>
    <path id="Path_22" data-name="Path 22" d="M365.035,307.351c-1.226,4.569-6.053,8.381-10.626,8.381a6.4,6.4,0,0,1-6.387-8.381A12.16,12.16,0,0,1,358.9,298.97C363.47,298.97,366.261,302.781,365.035,307.351Z" transform="translate(-224.569 -193.07)"/>
    <path id="Path_23" data-name="Path 23" d="M433.8,130.4a11.976,11.976,0,0,1-6.323,5.586c-2.812,1.017-5.214.51-7.956,1.272a20.313,20.313,0,0,0-8.88,6.6c-2.086,3.046-2.278,6.6-4.87,9.649a12.729,12.729,0,0,1-9.284,4.318c-3.3,0-7.081,1.778-9.723,4.063a18.514,18.514,0,0,0-5.614,8.636,11.865,11.865,0,0,1-7.12,7.619c-7.421,3.046-12.762-3.556-8.639-10.414a12.533,12.533,0,0,1,8.93-5.841c3.114-.255,5.976-.507,9.316-2.54a17.3,17.3,0,0,0,6.819-8.381,34.043,34.043,0,0,1,2.051-4.824,9.66,9.66,0,0,1,3.748-3.556c3.337-2.03,6.248-1.527,9.249-2.285a19.011,19.011,0,0,0,9.252-6.1,20.576,20.576,0,0,0,2.816-4.824c.73-1.778.882-3.3,2.054-4.824a11.1,11.1,0,0,1,8.912-4.824c5.586,0,8.473,5.334,5.267,10.665Z" transform="translate(-235.036 -77.32)"/>
    <path id="Path_24" data-name="Path 24" d="M380.095,187.621a12.161,12.161,0,0,1,10.878-8.381c4.573,0,7.361,3.808,6.135,8.381s-6.121,8.636-10.694,8.636S378.869,192.194,380.095,187.621Z" transform="translate(-245.278 -115.751)"/>
    <path id="Path_25" data-name="Path 25" d="M396.043,128.111a12.16,12.16,0,0,1,10.878-8.381c4.569,0,7.361,3.811,6.135,8.381s-6.054,8.381-10.626,8.381A6.4,6.4,0,0,1,396.043,128.111Z" transform="translate(-255.579 -77.32)"/>
    <path id="Path_26" data-name="Path 26" d="M603.29,155.563c-3.149,2.285-7.283,2.54-10.038.507a4.872,4.872,0,0,1-2.093-3.556,17.188,17.188,0,0,1,.344-5.079,9.31,9.31,0,0,0-2.324-8.381,13.809,13.809,0,0,0-3.96-2.285c-1.389-.507-2.979-.255-4.435-.507-6.84-1.017-6.861-10.414-.3-14.987,3.337-2.03,7.028-2.54,9.667-1.013s3.344,4.569,2.395,8.126c-1.516,6.606,2.827,12.192,9.429,12.192,7.871,0,8.774,9.9,1.318,14.983Z" transform="translate(-371.715 -77.09)"/>
    <path id="Path_27" data-name="Path 27" d="M706.749,417.98c-4.576,0-9.408,3.811-10.694,8.632a7.608,7.608,0,0,0-.181,3.376,10.474,10.474,0,0,0,1.311,2.784,5.571,5.571,0,0,1,.128,4.166,10.434,10.434,0,0,1-1.665,3.482c-.79,1.063-1.881,1.782-2.759,2.759a11.057,11.057,0,0,0-2.483,4.513c-1.222,4.569,1.566,8.381,6.139,8.381a11.586,11.586,0,0,0,10.623-8.381,7.838,7.838,0,0,0,.046-4.027c-.358-1.311-1.442-2.448-1.7-3.843-.5-2.639,1.024-5.529,3.092-7.106a12.37,12.37,0,0,0,2.55-2.628,10.826,10.826,0,0,0,1.665-3.471c1.286-4.824-1.243-8.632-6.064-8.632Z" transform="translate(-445.665 -269.925)"/>
    <path id="Path_28" data-name="Path 28" d="M744.412,238.76c-4.57,0-9.4,3.8-10.694,8.632a7.279,7.279,0,0,0,.783,5.795,4.866,4.866,0,0,1,.538,4.987,11.682,11.682,0,0,1-3.372,4.693,11.221,11.221,0,0,0-1.02.992,11.018,11.018,0,0,0-2.575,4.608,7.617,7.617,0,0,0-.1,3.751c.3,1.2,1.162,1.952,1.583,3.068a6.468,6.468,0,0,1-.159,3.655,10.3,10.3,0,0,1-.723,1.891,10.125,10.125,0,0,1-2.568,3.117,12.608,12.608,0,0,0-1.47,1.481,10.711,10.711,0,0,0-2.21,4.116c-1.293,4.824,1.495,8.632,6.064,8.632,4.824,0,9.4-3.811,10.694-8.632A7.249,7.249,0,0,0,739,285.19c-.528-1.456-1.785-2.664-1.746-4.279a8.51,8.51,0,0,1,1.353-3.9c.949-1.654,2.441-2.607,3.709-3.953a11.137,11.137,0,0,0,2.508-4.591,6.9,6.9,0,0,0-.609-5.689,4.928,4.928,0,0,1-1.052-2.1,8.016,8.016,0,0,1,1.417-5.317c1.034-1.569,2.621-2.472,3.783-3.9a11.033,11.033,0,0,0,2.115-4.07c1.293-4.831-1.243-8.632-6.064-8.632Z" transform="translate(-466.322 -154.188)"/>
    <path id="Path_29" data-name="Path 29" d="M787.214,187.621c-1.293,4.824-5.869,8.636-10.694,8.636-4.573,0-7.361-3.811-6.068-8.636,1.226-4.569,6.054-8.381,10.626-8.381C785.9,179.24,788.436,183.048,787.214,187.621Z" transform="translate(-497.339 -115.751)"/>
    <path id="Path_30" data-name="Path 30" d="M803.211,128.111a11.583,11.583,0,0,1-10.623,8.381c-4.569,0-7.361-3.811-6.135-8.381a11.582,11.582,0,0,1,10.627-8.381C801.9,119.73,804.507,123.286,803.211,128.111Z" transform="translate(-507.69 -77.32)"/>
    <path id="Path_31" data-name="Path 31" d="M818.482,8.381C819.708,3.811,824.536,0,829.109,0c4.824,0,7.357,3.811,6.135,8.381-1.293,4.824-5.869,8.636-10.694,8.636-4.573,0-7.361-3.811-6.068-8.636Z" transform="translate(-528.356)"/>
    <path id="Path_32" data-name="Path 32" d="M912.677,454.373c-3.408,2.285-7.467,2.285-9.971.255a5.637,5.637,0,0,1-1.959-4.063c-.283-1.778.379-3.3.531-4.824a9.541,9.541,0,0,0-2.834-8.381,9.225,9.225,0,0,0-4.028-2.033c-1.456-.255-2.979-.255-4.435-.507-6.514-1.272-6.284-10.665.716-14.983,3.085-2.03,6.96-2.285,9.348-.762,2.568,1.778,3.092,4.569,2.207,7.874-1.583,6.858,2.83,12.189,9.365,12.444,7.871,0,8.7,10.159,1.063,14.983Z" transform="translate(-571.689 -270.001)"/>
    <path id="Path_33" data-name="Path 33" d="M960.707,275.125c-3.407,2.285-7.467,2.285-9.971.255a6.452,6.452,0,0,1-2.026-3.811,34.46,34.46,0,0,1,.6-5.079,9.541,9.541,0,0,0-2.834-8.381,9.222,9.222,0,0,0-4.027-2.03c-1.456-.255-2.979-.255-4.435-.51-6.514-1.272-6.284-10.665.715-14.983,3.085-2.033,6.96-2.285,9.348-.762,2.568,1.778,3.092,4.569,2.207,7.871-1.583,6.858,2.83,12.189,9.365,12.444,7.871,0,8.7,10.159,1.063,14.983Z" transform="translate(-602.706 -154.242)"/>
    <path id="Path_34" data-name="Path 34" d="M988.047,134.713c-3.408,2.285-7.01,1.523-10.651,2.791a19,19,0,0,0-8.692,6.858c-2.086,3.046-2.278,6.6-4.8,9.394s-6.234,4.318-9.4,3.811c-6.84-1.017-6.928-10.159-.372-14.728,3.73-2.54,6.758-1.523,10.4-2.791a18.832,18.832,0,0,0,8.746-6.1,22.484,22.484,0,0,0,2.883-5.079,10.753,10.753,0,0,1,1.92-4.318,11.1,11.1,0,0,1,8.912-4.824c7.871,0,8.7,10.159,1.063,14.987Z" transform="translate(-613.034 -77.32)"/>
    <path id="Path_35" data-name="Path 35" d="M1001.976,504.941a11.9,11.9,0,0,1-10.878,8.381c-4.569,0-7.361-3.811-6.135-8.381s6.057-8.381,10.626-8.381C1000.414,496.56,1003.2,500.368,1001.976,504.941Z" transform="translate(-635.885 -320.671)"/>
    <path id="Path_36" data-name="Path 36" d="M1053.676,307.351a11.9,11.9,0,0,1-10.878,8.381c-4.569,0-7.361-3.811-6.135-8.381s6.057-8.381,10.626-8.381C1052.114,298.97,1054.9,302.781,1053.676,307.351Z" transform="translate(-669.272 -193.07)"/>
    <path id="Path_37" data-name="Path 37" d="M1087.553,432.967c-3.475,2.54-7.01,1.523-10.906,2.795a21.135,21.135,0,0,0-8.76,7.109c-2.086,3.046-2.21,6.351-4.8,9.394-2.525,2.795-6.234,4.318-9.4,3.811-6.84-1.017-6.861-10.41-.3-14.983,3.4-2.288,6.5-1.527,9.822-2.54a19.184,19.184,0,0,0,12.068-10.92,11.97,11.97,0,0,1,1.987-4.573,11.506,11.506,0,0,1,8.979-5.079c7.871,0,8.7,10.159,1.318,14.983Z" transform="translate(-677.107 -269.925)"/>
    <path id="Path_38" data-name="Path 38" d="M1105.366,106.091a11.9,11.9,0,0,1-10.878,8.381c-4.569,0-7.36-3.811-6.135-8.381s6.057-8.381,10.626-8.381C1103.8,97.71,1106.592,101.521,1105.366,106.091Z" transform="translate(-702.653 -63.1)"/>
    <path id="Path_39" data-name="Path 39" d="M1123.887,335.051c-3.34,2.033-7.47,2.288-9.971.255a7.155,7.155,0,0,1-1.959-4.063,12.047,12.047,0,0,1,.648-4.318c.375-3.3-.33-6.348-2.327-8.381a7.171,7.171,0,0,0-3.889-2.54c-1.388-.51-3.234-.255-4.686-.51-6.84-1.017-6.861-10.41-.3-14.983,3.337-2.033,7.028-2.54,9.666-1.017s3.344,4.569,2.462,7.871c-1.583,6.858,2.759,12.444,9.362,12.444,7.871,0,8.636,10.414,1,15.238Z" transform="translate(-708.118 -192.837)"/>
    <path id="Path_40" data-name="Path 40" d="M1149.371,121.313c3.4-2.285,7.534-2.54,10.038-.507a4.488,4.488,0,0,1,2.352,3.556,17.182,17.182,0,0,1-.347,5.079,9.31,9.31,0,0,0,2.324,8.381,13.727,13.727,0,0,0,3.96,2.285c1.644.51,3.234.255,4.69.51,6.7,1.523,6.468,10.92-.528,15.238-3.085,2.03-6.96,2.285-9.277.507-2.639-1.523-3.092-4.569-2.277-7.619,1.583-6.858-2.76-12.444-9.362-12.444-7.871,0-8.774-9.9-1.569-14.987Z" transform="translate(-739.078 -77.125)"/>
    <path id="Path_41" data-name="Path 41" d="M1312.8,456.213c-3.407,2.285-7.467,2.285-9.971.255a5.637,5.637,0,0,1-1.959-4.063c-.283-1.778.379-3.3.531-4.824a9.541,9.541,0,0,0-2.834-8.381,9.225,9.225,0,0,0-4.027-2.033c-1.456-.255-2.979-.255-4.435-.507-6.514-1.272-6.284-10.665.715-14.983,3.085-2.03,6.96-2.285,9.348-.762,2.568,1.778,3.092,4.569,2.207,7.874-1.583,6.858,2.83,12.189,9.365,12.444,7.871,0,8.7,10.159,1.063,14.983Z" transform="translate(-830.08 -271.189)"/>
    <path id="Path_42" data-name="Path 42" d="M1360.827,276.965c-3.408,2.285-7.467,2.285-9.971.255a6.451,6.451,0,0,1-2.026-3.811,34.494,34.494,0,0,1,.6-5.079,9.541,9.541,0,0,0-2.834-8.381,9.222,9.222,0,0,0-4.027-2.03c-1.456-.255-2.979-.255-4.435-.51-6.514-1.272-6.284-10.665.715-14.983,3.085-2.033,6.96-2.285,9.348-.762,2.568,1.778,3.092,4.569,2.207,7.871-1.583,6.858,2.83,12.189,9.365,12.444,7.871,0,8.7,10.159,1.063,14.983Z" transform="translate(-861.098 -155.43)"/>
    <path id="Path_43" data-name="Path 43" d="M1388.167,136.553c-3.408,2.285-7.01,1.523-10.651,2.791a19,19,0,0,0-8.693,6.858c-2.086,3.046-2.278,6.6-4.8,9.394s-6.234,4.318-9.4,3.811c-6.84-1.017-6.928-10.159-.372-14.728,3.73-2.54,6.758-1.523,10.4-2.791a18.832,18.832,0,0,0,8.746-6.1,22.485,22.485,0,0,0,2.883-5.079,10.75,10.75,0,0,1,1.92-4.318,11.1,11.1,0,0,1,8.912-4.824c7.871,0,8.7,10.159,1.063,14.987Z" transform="translate(-871.425 -78.508)"/>
    <path id="Path_44" data-name="Path 44" d="M1402.1,506.781a11.9,11.9,0,0,1-10.878,8.381c-4.569,0-7.36-3.811-6.135-8.381s6.057-8.381,10.626-8.381c4.824,0,7.612,3.808,6.386,8.381Z" transform="translate(-894.277 -321.859)"/>
    <path id="Path_45" data-name="Path 45" d="M1453.8,309.191a11.9,11.9,0,0,1-10.878,8.381c-4.57,0-7.361-3.811-6.135-8.381s6.057-8.381,10.626-8.381C1452.234,300.81,1455.022,304.621,1453.8,309.191Z" transform="translate(-927.664 -194.259)"/>
    <path id="Path_46" data-name="Path 46" d="M1487.673,434.8c-3.475,2.54-7.01,1.523-10.906,2.795a21.136,21.136,0,0,0-8.76,7.109c-2.087,3.046-2.21,6.351-4.8,9.394-2.526,2.795-6.234,4.318-9.4,3.811-6.84-1.017-6.861-10.41-.3-14.983,3.4-2.288,6.5-1.527,9.822-2.54a19.183,19.183,0,0,0,12.068-10.92,11.976,11.976,0,0,1,1.987-4.573,11.506,11.506,0,0,1,8.979-5.079c7.87,0,8.7,10.159,1.318,14.983Z" transform="translate(-935.499 -271.107)"/>
    <path id="Path_47" data-name="Path 47" d="M1505.487,107.921a11.9,11.9,0,0,1-10.878,8.381c-4.569,0-7.361-3.811-6.135-8.381s6.057-8.381,10.626-8.381C1503.925,99.54,1506.712,103.351,1505.487,107.921Z" transform="translate(-961.045 -64.281)"/>
    <path id="Path_48" data-name="Path 48" d="M1524.007,336.891c-3.34,2.033-7.47,2.288-9.971.255a7.154,7.154,0,0,1-1.959-4.063,12.049,12.049,0,0,1,.648-4.318c.375-3.3-.329-6.348-2.327-8.381a7.17,7.17,0,0,0-3.889-2.54c-1.389-.51-3.234-.255-4.686-.51-6.84-1.017-6.861-10.41-.3-14.983,3.337-2.033,7.028-2.54,9.667-1.017s3.344,4.569,2.462,7.871c-1.583,6.858,2.759,12.444,9.362,12.444,7.871,0,8.636,10.414,1,15.238Z" transform="translate(-966.51 -194.026)"/>
    <path id="Path_49" data-name="Path 49" d="M1549.5,123.143c3.4-2.285,7.534-2.54,10.038-.507a4.488,4.488,0,0,1,2.352,3.556,17.186,17.186,0,0,1-.347,5.079,9.31,9.31,0,0,0,2.324,8.381,13.73,13.73,0,0,0,3.96,2.285c1.643.51,3.234.255,4.69.51,6.7,1.523,6.468,10.92-.528,15.238-3.085,2.03-6.96,2.285-9.277.507-2.639-1.523-3.092-4.569-2.278-7.619,1.583-6.858-2.759-12.444-9.362-12.444-7.871,0-8.774-9.9-1.569-14.987Z" transform="translate(-997.476 -78.307)"/>
    <path id="Path_50" data-name="Path 50" d="M1717.987,454.373c-3.408,2.285-7.467,2.285-9.971.255a5.639,5.639,0,0,1-1.959-4.063c-.283-1.778.379-3.3.532-4.824a9.541,9.541,0,0,0-2.834-8.381,14.026,14.026,0,0,0-4.027-2.033c-1.456-.255-2.979-.255-4.435-.507-6.514-1.272-6.284-10.665.715-14.983,3.085-2.03,6.96-2.285,9.348-.762,2.568,1.778,3.092,4.569,2.207,7.874-1.583,6.858,2.83,12.189,9.365,12.444,7.871,0,8.7,10.159,1.063,14.983Z" transform="translate(-1091.746 -270.001)"/>
    <path id="Path_51" data-name="Path 51" d="M1706.315,366.861a12.156,12.156,0,0,1,10.878-8.381c4.573,0,7.361,3.811,6.135,8.381s-6.121,8.636-10.694,8.636S1705.089,371.434,1706.315,366.861Z" transform="translate(-1101.731 -231.501)"/>
    <path id="Path_52" data-name="Path 52" d="M1722.262,307.351a12.16,12.16,0,0,1,10.878-8.381c4.569,0,7.361,3.811,6.135,8.381s-6.054,8.381-10.627,8.381A6.4,6.4,0,0,1,1722.262,307.351Z" transform="translate(-1112.033 -193.07)"/>
    <path id="Path_53" data-name="Path 53" d="M1738.212,247.376c1.293-4.824,6.376-8.636,10.949-8.636s7.357,3.811,6.064,8.636c-1.226,4.569-6.054,8.381-10.626,8.381A6.4,6.4,0,0,1,1738.212,247.376Z" transform="translate(-1122.333 -154.175)"/>
    <path id="Path_54" data-name="Path 54" d="M1793.161,134.975c-3.659,2.285-7.2,1.272-10.906,2.795a18.225,18.225,0,0,0-8.965,7.874c-1.576,3.046-1.888,6.1-4.6,8.636-2.781,2.791-6.422,4.063-9.518,3.3-6.379-1.778-5.639-11.175,1.29-15.238,3.337-2.033,6.181-1.272,9.5-2.285a18.833,18.833,0,0,0,8.746-6.1,22.486,22.486,0,0,0,2.883-5.079,10.752,10.752,0,0,1,1.92-4.318,11.1,11.1,0,0,1,8.912-4.824c8.126,0,8.568,10.665.74,15.238Z" transform="translate(-1133.221 -77.326)"/>
    <path id="Path_55" data-name="Path 55" d="M1807.276,506.781a11.9,11.9,0,0,1-10.878,8.381c-4.569,0-7.361-3.811-6.135-8.381s6.057-8.381,10.626-8.381C1805.714,498.4,1808.5,502.208,1807.276,506.781Z" transform="translate(-1155.936 -321.859)"/>
    <path id="Path_56" data-name="Path 56" d="M1892.551,433.218c-3.407,2.285-6.943,1.272-10.584,2.54a19.263,19.263,0,0,0-9.149,7.619c-1.832,3.05-1.955,6.351-4.736,9.142a11.11,11.11,0,0,1-9.585,3.556c-6.447-1.523-6.216-10.92.779-15.238,3.085-2.033,5.926-1.272,9.248-2.285a19.185,19.185,0,0,0,12.068-10.92,11.965,11.965,0,0,1,1.987-4.573,11.5,11.5,0,0,1,8.979-5.079c7.871,0,8.636,10.41,1,15.238Z" transform="translate(-1197.179 -269.925)"/>
    <path id="Path_57" data-name="Path 57" d="M1912.506,107.921a11.9,11.9,0,0,1-10.878,8.381c-4.569,0-7.361-3.811-6.135-8.381s6.057-8.381,10.627-8.381C1910.944,99.54,1913.732,103.351,1912.506,107.921Z" transform="translate(-1223.892 -64.281)"/>
    <path id="Path_58" data-name="Path 58" d="M1962.486,366.861c-1.226,4.569-6.124,8.636-10.694,8.636s-7.293-4.063-6.068-8.636,6.057-8.381,10.626-8.381S1963.708,362.291,1962.486,366.861Z" transform="translate(-1256.328 -231.501)"/>
    <path id="Path_59" data-name="Path 59" d="M1954.675,121.313c3.4-2.285,7.534-2.54,10.038-.507a4.488,4.488,0,0,1,2.352,3.556,17.19,17.19,0,0,1-.347,5.079,9.31,9.31,0,0,0,2.324,8.381,13.729,13.729,0,0,0,3.96,2.285c1.388.51,2.979.255,4.435.51,6.836,1.017,6.861,10.41.046,14.983-3.082,2.03-6.772,2.54-9.415,1.017s-3.344-4.573-2.462-7.874c1.583-6.858-2.759-12.444-9.362-12.444C1948.373,136.3,1947.47,126.4,1954.675,121.313Z" transform="translate(-1259.129 -77.125)"/>
    <path id="Path_60" data-name="Path 60" d="M1978.441,307.351c-1.226,4.569-6.053,8.381-10.623,8.381s-7.361-3.811-6.135-8.381,6.057-8.381,10.626-8.381S1979.667,302.781,1978.441,307.351Z" transform="translate(-1266.637 -193.07)"/>
    <path id="Path_61" data-name="Path 61" d="M1994.391,247.376c-1.225,4.569-6.054,8.381-10.623,8.381s-7.36-3.811-6.135-8.381c1.293-4.824,6.124-8.636,10.694-8.636S1995.684,242.551,1994.391,247.376Z" transform="translate(-1276.937 -154.175)"/>
    <path id="Path_62" data-name="Path 62" d="M2110.645,486.591c-1.226,4.569-6.054,8.381-10.626,8.381a6.4,6.4,0,0,1-6.387-8.381,12.157,12.157,0,0,1,10.878-8.381C2109.083,478.21,2111.871,482.018,2110.645,486.591Z" transform="translate(-1351.857 -308.821)"/>
    <path id="Path_63" data-name="Path 63" d="M2126.6,426.616c-1.226,4.569-6.054,8.381-10.626,8.381a6.4,6.4,0,0,1-6.387-8.381c1.293-4.824,6.376-8.636,10.945-8.636s7.361,3.808,6.068,8.636Z" transform="translate(-1362.158 -269.925)"/>
    <path id="Path_64" data-name="Path 64" d="M2142.241,298.98a12.178,12.178,0,0,0-10.885,8.381,7.489,7.489,0,0,0-.046,3.815c.309,1.172,1.222,2.019,1.647,3.135a6.694,6.694,0,0,1-.9,5.7c-1.2,1.969-3.266,3.177-4.633,5.009a10.106,10.106,0,0,0-1.711,3.418c-1.229,4.569,1.75,8.632,6.319,8.632s9.465-4.063,10.694-8.632a6.877,6.877,0,0,0-.128-4.13c-.432-1.211-1.41-2.171-1.725-3.432-.659-2.625,1.091-5.129,2.774-6.96,1.934-2.108,3.935-3.631,4.722-6.553,1.229-4.569-1.562-8.381-6.131-8.381Z" transform="translate(-1372.572 -193.077)"/>
    <path id="Path_65" data-name="Path 65" d="M2227.3,130.906a12.181,12.181,0,0,1-7.014,5.334c-2.745.762-5.146.255-7.959,1.268a19.678,19.678,0,0,0-8.441,6.858c-2.086,3.046-2.277,6.6-4.8,9.394-2.6,3.05-5.593,3.811-8.962,4.063-3.3,0-7.077,1.778-9.723,4.063a18.542,18.542,0,0,0-5.614,8.636,11.874,11.874,0,0,1-7.12,7.619c-7.421,3.046-12.763-3.556-8.64-10.414a12.534,12.534,0,0,1,8.93-5.841c3.117-.255,5.979-.507,9.316-2.54a17.276,17.276,0,0,0,6.815-8.381,33.674,33.674,0,0,1,2.055-4.824,9.65,9.65,0,0,1,3.744-3.556c3.337-2.03,6.249-1.527,9.249-2.285a18.985,18.985,0,0,0,9.249-6.1,20.451,20.451,0,0,0,2.816-4.824c.729-1.778.882-3.3,2.054-4.824a11.1,11.1,0,0,1,8.912-4.824c5.841,0,8.409,5.586,5.132,11.175Z" transform="translate(-1393.335 -77.32)"/>
    <path id="Path_66" data-name="Path 66" d="M2173.735,187.621a12.161,12.161,0,0,1,10.878-8.381c4.573,0,7.361,3.808,6.135,8.381s-6.125,8.636-10.694,8.636S2172.51,192.194,2173.735,187.621Z" transform="translate(-1403.584 -115.751)"/>
    <path id="Path_67" data-name="Path 67" d="M2189.682,128.111a12.161,12.161,0,0,1,10.878-8.381c4.569,0,7.361,3.811,6.135,8.381s-6.053,8.381-10.627,8.381A6.4,6.4,0,0,1,2189.682,128.111Z" transform="translate(-1413.885 -77.32)"/>
    <path id="Path_68" data-name="Path 68" d="M2355.047,358.48c-4.57,0-9.4,3.811-10.623,8.381a7.936,7.936,0,0,0-.209,3.284c.28,1.884,1.7,3.315,1.828,5.278.227,3.556-2.894,5.954-4.98,8.359-1.867,2.154-3.138,5.2-2.476,8.065.475,2.062,1.8,3.468,1.587,5.714a9.154,9.154,0,0,1-2.923,5.667c-1.859,1.757-3.5,3.493-4.19,6.039-1.229,4.569,1.562,8.381,6.132,8.381s9.4-3.811,10.63-8.381a7.145,7.145,0,0,0-.074-4.187c-.6-1.729-1.789-2.866-1.725-4.846.167-5.094,6.177-7.3,7.442-12.043.627-2.363-.049-4.414-1.1-6.564-1.123-2.3-.3-4.941,1.049-6.985.857-1.293,2.242-2.069,3.244-3.223a11.741,11.741,0,0,0,2.522-4.559c1.229-4.569-1.558-8.381-6.132-8.381Z" transform="translate(-1506.466 -231.501)"/>
    <path id="Path_69" data-name="Path 69" d="M2383.1,139.673a8.074,8.074,0,0,0-4.077-2.795c-1.388-.507-3.234-.255-4.687-.507-7.346-1.017-6.843-11.431.847-15.493,3.269-1.778,7.081-1.778,9.4,0a7.134,7.134,0,0,1,1.958,4.063,27.724,27.724,0,0,1-.464,4.569,9.309,9.309,0,0,0,2.323,8.381,13.736,13.736,0,0,0,3.96,2.285c1.389.51,2.979.255,4.435.51,6.836,1.017,6.861,10.41.046,14.983-6.557,4.569-13.846.507-11.941-6.606.953-3.556.383-7.109-1.8-9.394Z" transform="translate(-1529.936 -77.2)"/>
    <path id="Path_70" data-name="Path 70" d="M2397.841,307.351c-1.226,4.569-6.054,8.381-10.623,8.381s-7.361-3.811-6.135-8.381,6.057-8.381,10.626-8.381S2399.067,302.781,2397.841,307.351Z" transform="translate(-1537.479 -193.07)"/>
    <path id="Path_71" data-name="Path 71" d="M2413.781,247.376c-1.226,4.569-6.053,8.381-10.623,8.381s-7.36-3.811-6.135-8.381c1.293-4.824,6.125-8.636,10.694-8.636S2415.074,242.551,2413.781,247.376Z" transform="translate(-1547.773 -154.175)"/>
  </g>
</svg>
