<?xml version="1.0" encoding="UTF-8"?>
<svg id="Layer_1" data-name="Layer 1" xmlns="http://www.w3.org/2000/svg" viewBox="0 0 242.95 244.11">
  <defs>
    <style>
      .cls-1 {
        fill: #003ce0;
      }
    </style>
  </defs>
  <path class="cls-1" d="M122.61,244.1c-17.72,0-35.44-.01-53.17,0-6.36,0-12.47-1.39-18.46-3.33-6.33-2.05-12.23-4.99-17.73-8.78-6.08-4.19-11.51-9.09-16.05-14.87-3.25-4.13-6.3-8.46-8.99-12.96-3.64-6.1-5.7-12.92-7.05-19.83-1.86-9.49-.93-19.16-.96-28.76-.09-29.71-.14-59.42.03-89.13.05-8.51,2.35-16.63,5.79-24.46,3.95-9.01,9.47-16.85,16.63-23.5,6.27-5.82,13.4-10.39,21.4-13.61C52.85,1.33,61.93-.04,71.4,0c33.97.14,67.95.02,101.92.07,11.6.01,22.26,3.51,32.25,9.24,8.11,4.66,14.6,11.15,20.78,18.06,6.92,7.73,11.37,16.73,14.1,26.61,1.6,5.79,2.53,11.7,2.51,17.81-.12,35.3-.02,70.59-.09,105.89-.01,6.7-1.76,13.11-3.85,19.46-1.82,5.53-4.45,10.65-7.65,15.41-2.6,3.86-5.68,7.49-8.98,10.77-3.46,3.43-7.18,6.76-11.28,9.35-4.65,2.94-9.76,5.22-14.84,7.4-3.07,1.32-6.42,2.07-9.71,2.78-2.95.63-5.99,1.19-9,1.21-18.31.11-36.62.05-54.93.05ZM19.62,120.74c.14,0,.28,0,.43,0,0,18.28-.17,36.56.12,54.84.07,4.4,1.24,8.94,2.7,13.14,2.17,6.24,5.35,12.05,10.11,16.8,4.27,4.26,8.36,8.63,13.69,11.8,8.07,4.8,16.71,7.26,25.91,7.26,34.97.02,69.94-.15,104.91-.48,4.16-.04,8.51-.98,12.43-2.43,12.21-4.51,21.53-12.67,27.64-24.17,3.91-7.37,5.86-15.43,5.85-23.77-.04-35.12-.15-70.24-.5-105.35-.04-4.37-1.22-8.87-2.63-13.05-1.77-5.21-4.61-9.94-8.05-14.37-4.71-6.05-10.27-11.03-16.81-14.9-7.49-4.43-15.73-6.49-24.37-6.53-26.62-.11-53.23-.14-79.85,0-10.87.05-21.79-.88-32.59,1.28-7.76,1.55-14.51,5.3-20.48,10.15-6.04,4.91-10.66,11.13-13.86,18.41-2.89,6.56-4.46,13.38-4.56,20.43-.23,16.98-.07,33.97-.07,50.95Z"/>
  <path class="cls-1" d="M121.42,58.81c9.41-.37,18.17,2.11,26.5,5.94,8.28,3.8,15.17,9.52,21.18,16.47,5.35,6.19,9.08,13.13,11.76,20.75,2.85,8.11,3.26,16.54,2.83,24.99-.38,7.49-2.31,14.65-5.48,21.55-4.31,9.38-10.52,17.04-18.58,23.45-5.66,4.5-11.87,7.82-18.65,10-4.07,1.31-8.39,1.88-12.64,2.52-2.65.4-5.38.52-8.07.44-5.56-.16-11-.74-16.43-2.44-4.97-1.55-9.64-3.57-14.07-6.13-6.73-3.88-12.4-9.04-17.24-15.13-4.63-5.82-8.13-12.26-10.42-19.29-2.61-8.01-3.2-16.34-2.78-24.72.41-8.17,2.57-15.94,6.09-23.29,4.31-9,10.77-16.4,18.58-22.41,7.76-5.97,16.56-10.06,26.4-11.44,3.66-.51,7.34-.84,11.01-1.25ZM121.57,165.83c.02-.11.03-.22.05-.34,1.66-.14,3.35-.15,4.99-.43,3.11-.53,6.38-.76,9.24-1.94,3.74-1.55,7.22-3.8,10.68-5.95,4.75-2.95,8.38-7.13,11.25-11.83,2.62-4.28,4.34-8.97,5.41-13.97,1.18-5.49,1.21-11.02.52-16.41-.82-6.39-3.25-12.44-6.92-17.85-3.32-4.89-7.48-8.9-12.56-11.99-4.92-2.99-10.14-5-15.84-5.97-7.11-1.21-14.11-.62-20.76,1.78-4.27,1.54-8.27,4.05-12.08,6.58-7.04,4.68-11.26,11.65-14.13,19.4-2.1,5.68-2.53,11.63-2.33,17.73.3,9.27,3.43,17.47,8.92,24.66,4.96,6.51,11.63,11.23,19.37,13.87,4.51,1.54,9.45,1.83,14.2,2.68Z"/>
  <path class="cls-1" d="M184.84,73.78c-9.79-.12-16.99-7.76-16.96-16.67.03-9.72,7.65-17.2,17.42-16.81,9.47.38,16.3,6.82,16.4,16.7.1,9.43-6.99,16.51-16.86,16.77Z"/>
</svg>