<?xml version="1.0" encoding="UTF-8"?>
<svg id="Layer_1" data-name="Layer 1" xmlns="http://www.w3.org/2000/svg" viewBox="0 0 242.91 242.85">
  <defs>
    <style>
      .cls-1 {
        fill: #003ce0;
      }
    </style>
  </defs>
  <path class="cls-1" d="M126.12,242.85h-9.01l-12.17-1.22C48.67,233.76,5.26,187.47.53,130.86c-.13-1.57.13-3.33-.48-4.86.11-2.99-.15-6.02,0-9.01C3.88,43.04,70.54-11.59,144.17,2.11c49.52,9.21,88.76,49.25,97.05,98.95,12.09,72.53-42.23,138.42-115.1,141.79ZM98.34,65.39c-16.17.36-35.24,2.19-50.71,6.87-15.74,4.77-10.5,23.73,3.23,22.19,2.57-.29,6.24-1.78,8.95-2.42,37.51-8.89,89.41-5.36,124.45,11.25,7.01,3.32,12.67,8.89,20.86,4.91,5.99-2.9,6.74-10.77,3.1-15.84-3.02-4.2-16.75-10.11-21.91-12.21-26.87-10.95-58.98-15.4-87.96-14.75ZM92.18,106.87c-11.63.48-24.84,2.48-36.02,5.69-3.89,1.11-7.21,1.89-8.83,6.1-2.02,5.24.25,10.93,5.85,12.39,4.37,1.15,11.4-1.83,16.02-2.84,33.22-7.27,73.72-2.6,103.84,13.31,5.54,2.93,9.67,7.55,16.09,3.3,4.27-2.83,5.8-8.56,2.73-12.88-1.38-1.94-6.6-4.61-8.87-5.83-27.34-14.67-59.86-20.51-90.81-19.24ZM94.08,146.45c-11.14.45-24.24,2.16-35.07,4.74-2.24.53-3.85.8-5.64,2.41-5.42,4.89-.87,13.63,6.02,12.9,2.47-.27,5.59-1.33,8.15-1.8,33.33-6.14,64.31-5.71,94.76,10.32,4.02,2.12,7.28,5.69,12.09,3.16,3.66-1.92,5.02-6.69,3.11-10.31-1.15-2.18-6.92-5.11-9.28-6.36-23.04-12.27-48.14-16.11-74.14-15.06Z"/>
</svg>