<?xml version="1.0" encoding="UTF-8"?>
<svg id="Layer_1" data-name="Layer 1" xmlns="http://www.w3.org/2000/svg" viewBox="0 0 242.39 242.42">
  <defs>
    <style>
      .cls-1 {
        fill: #003ce0;
      }
    </style>
  </defs>
  <path class="cls-1" d="M60.98.3c42.88,1.46,86.25-1.42,129.08.22,26.49,1.01,47.78,14.51,51.12,42.4,2.16,18.05.73,37.96.68,56.19-.08,30.13,1.25,61.63.01,91.57-.84,20.31-8.58,37.99-28,46.55-16.52,7.29-44.22,4.66-62.39,4.61-32.82-.09-67.13,1.36-99.74.01-20.32-.84-37.98-8.58-46.55-28-7.35-16.66-4.66-45.02-4.61-63.37.09-32.43-1.3-66.21-.03-98.45.63-15.94,4.84-29.99,17.52-40.36C31.01,1.06,44.93.72,60.98.3ZM183.01,107.46v-30.9c-.74-.87-2.05-.38-3.1-.49-14.3-1.55-25.84-10.74-30.73-24.21-.66-1.81-.71-4.16-1.98-5.55h-18.47l-.34,1.78.03,103.03c-3.93,28.14-45.98,23.05-42.76-5.48,1.47-12.98,15.71-21.75,28.03-17.58v-26.16c-13.2-1.95-26.96,1.38-37.1,10.15-22.65,19.58-23.13,54.12.33,73.23,29.87,24.33,73.85,5.54,77.65-32.2v-56.07c.38-.39,5.18,2.88,6,3.32,6.93,3.73,14.57,6.33,22.45,7.14Z"/>
</svg>