<svg xmlns="http://www.w3.org/2000/svg" width="1464" height="673.592" viewBox="0 0 1464 673.592">
  <g id="Group_2" data-name="Group 2" transform="translate(-228 -223.938)">
    <g id="FRISSON_-_REBRAND_-_FINAL-02" data-name="FRISSON - REBRAND - FINAL-02" transform="translate(227.996 378)">
      <path id="Path_11" data-name="Path 11" d="M28.624,492.28c-2.058,7.672-9.735,14.07-17.835,14.07-7.672,0-12.358-6.4-10.3-14.07,2.171-8.1,10.163-14.07,17.841-14.07,8.1,0,12.471,5.971,10.3,14.07Z" transform="translate(0 -193.823)" fill="#003ce0"/>
      <path id="Path_12" data-name="Path 12" d="M44.564,432.479c-2.058,7.671-9.735,14.07-17.835,14.07-7.672,0-12.358-6.4-10.3-14.07,2.171-8.1,10.282-14.5,17.954-14.5,8.1,0,12.352,6.393,10.181,14.5Z" transform="translate(-6.461 -169.411)" fill="#003ce0"/>
      <path id="Path_13" data-name="Path 13" d="M64.883,133.8c-2.058,7.672-10.163,14.07-17.841,14.07-8.1,0-12.78-6.4-10.722-14.07a19.536,19.536,0,0,1,18.263-14.07C62.261,119.73,67.054,125.7,64.883,133.8Z" transform="translate(-14.523 -48.528)" fill="#003ce0"/>
      <path id="Path_14" data-name="Path 14" d="M69.458,238.76c-7.672,0-15.783,6.387-17.954,14.493a13.045,13.045,0,0,0-.369,5.227,10.453,10.453,0,0,0,1.427,3.9c.833,1.38,1.808,2.361,1.992,4.032.44,4.026-1.8,8.367-4.567,11.174-1.564,1.588-3.348,2.8-4.722,4.591a18.485,18.485,0,0,0-3.241,6.464,12.641,12.641,0,0,0-.155,6.333,10.449,10.449,0,0,0,1.2,2.89,9.993,9.993,0,0,1,1.469,6.928c-.083.47-.19.946-.321,1.433a15.7,15.7,0,0,1-3.5,6.666c-1.558,1.624-3.36,2.86-4.763,4.639a18.068,18.068,0,0,0-3.419,6.5c-2.159,8.1,2.51,14.493,10.181,14.493,8.112,0,15.783-6.4,17.954-14.493a12.718,12.718,0,0,0-.208-7.927c-.815-2-2.64-3.283-2.985-5.525-.375-2.426.618-4.918,1.79-6.994,3.235-5.745,9.545-8.908,11.127-15.8a11.5,11.5,0,0,0-.333-6.69c-.547-1.4-1.427-2.646-2.064-4.014-1.594-3.449-.036-7.874,1.974-10.865,1.677-2.486,4.3-3.889,6.161-6.179a18.5,18.5,0,0,0,3.5-6.779c2.171-8.112-2.087-14.493-10.181-14.493Z" transform="translate(-12.973 -96.772)" fill="#003ce0"/>
      <path id="Path_15" data-name="Path 15" d="M108.7,193.31c-2.171,8.1-9.854,14.5-17.954,14.5-7.672,0-12.358-6.4-10.187-14.5,2.058-7.672,10.163-14.07,17.841-14.07C106.5,179.24,110.75,185.633,108.7,193.31Z" transform="translate(-32.433 -72.648)" fill="#003ce0"/>
      <path id="Path_16" data-name="Path 16" d="M124.674,133.8c-2.058,7.672-9.735,14.07-17.835,14.07-7.672,0-12.358-6.4-10.3-14.07,2.171-8.1,10.169-14.07,17.841-14.07C122.48,119.73,126.851,125.7,124.674,133.8Z" transform="translate(-38.93 -48.528)" fill="#003ce0"/>
      <path id="Path_17" data-name="Path 17" d="M186.035,14.07c-2.171,8.1-10.282,14.5-18.382,14.5-11.513,0-23.829,9.378-27.029,21.32-2.058,7.672-9.735,14.07-17.835,14.07-7.672,0-12.358-6.393-10.3-14.07,2.171-8.1,10.282-14.5,17.954-14.5,11.935,0,23.829-9.378,27.029-21.32C159.529,6.4,167.635,0,175.313,0c8.1,0,12.78,6.4,10.728,14.07Z" transform="translate(-45.395 0)" fill="#003ce0"/>
      <path id="Path_18" data-name="Path 18" d="M184.6,133.8c-2.058,7.672-10.163,14.07-18.263,14.07-7.672,0-12.358-6.4-10.3-14.07,2.171-8.1,10.169-14.07,17.841-14.07C181.98,119.73,186.779,125.7,184.6,133.8Z" transform="translate(-63.046 -48.528)" fill="#003ce0"/>
      <path id="Path_19" data-name="Path 19" d="M244.113,133.8c-2.058,7.672-10.163,14.07-17.841,14.07-8.1,0-12.78-6.4-10.722-14.07a19.536,19.536,0,0,1,18.263-14.07C241.491,119.73,246.284,125.7,244.113,133.8Z" transform="translate(-87.167 -48.528)" fill="#003ce0"/>
      <path id="Path_20" data-name="Path 20" d="M247.6,14.07C249.656,6.4,257.762,0,265.862,0c7.677,0,12.358,6.4,10.3,14.07-2.171,8.1-10.276,14.5-17.954,14.5-8.1,0-12.78-6.4-10.609-14.5Z" transform="translate(-100.137)" fill="#003ce0"/>
      <path id="Path_21" data-name="Path 21" d="M337.512,358.48c-7.672,0-16.211,6.4-18.263,14.07a12.711,12.711,0,0,0-.315,5.346,10.98,10.98,0,0,0,1.748,4.46,8.965,8.965,0,0,1,1.249,7.261.317.317,0,0,1-.018.059,17.417,17.417,0,0,1-2.8,5.87c-1.3,1.754-3.176,3.075-4.746,4.7a18.992,18.992,0,0,0-4.716,8.123,12.138,12.138,0,0,0-.184,5.852,10.4,10.4,0,0,0,1.314,3.223,9.983,9.983,0,0,1,1.552,7.19,17.4,17.4,0,0,1-2.771,6.512c-1.439,2.058-3.449,3.384-5.132,5.2a17.78,17.78,0,0,0-4.27,7.41c-2.052,7.672,3.045,14.07,10.716,14.07,6.191,0,12.3-4.175,15.688-9.247a13.091,13.091,0,0,0,2.313-8.677c-.381-3.289-2.51-5.786-3.211-8.92-.749-3.366.72-7.112,2.789-9.759,1.635-2.093,3.9-3.556,5.656-5.531a18.232,18.232,0,0,0,4.1-7.321,13.25,13.25,0,0,0-.071-7.636c-.969-2.866-2.712-5.037-2.617-8.207a12.838,12.838,0,0,1,3.752-8.516c1.677-1.695,3.675-3.039,5.168-4.906a18.1,18.1,0,0,0,3.36-6.548c2.052-7.672-2.629-14.07-10.306-14.07Z" transform="translate(-121.471 -145.295)" fill="#003ce0"/>
      <path id="Path_22" data-name="Path 22" d="M376.771,313.04c-2.058,7.671-10.163,14.07-17.841,14.07s-12.78-6.4-10.722-14.07,10.591-14.07,18.263-14.07S378.828,305.369,376.771,313.04Z" transform="translate(-140.944 -121.175)" fill="#003ce0"/>
      <path id="Path_23" data-name="Path 23" d="M481.22,137.636c-2,4.264-6.322,7.671-10.615,9.378-4.722,1.707-8.754.856-13.357,2.135a34.1,34.1,0,0,0-14.909,11.085c-3.5,5.114-3.824,11.085-8.177,16.2s-9.931,6.827-15.587,7.249c-5.543,0-11.888,2.985-16.324,6.821-4.978,4.264-7.517,8.956-9.426,14.5a19.92,19.92,0,0,1-11.953,12.792c-12.459,5.114-21.427-5.971-14.5-17.484A21.042,21.042,0,0,1,381.36,190.5c5.227-.428,10.032-.85,15.64-4.264,5.174-3.414,9.533-8.528,11.448-14.07,1.225-2.985,1.909-5.543,3.443-8.1a16.218,16.218,0,0,1,6.292-5.971c5.6-3.408,10.49-2.563,15.527-3.836a31.918,31.918,0,0,0,15.533-10.235,34.543,34.543,0,0,0,4.728-8.1c1.225-2.985,1.481-5.543,3.449-8.1a18.641,18.641,0,0,1,14.962-8.1c9.378,0,14.225,8.956,8.843,17.906Z" transform="translate(-147.514 -48.528)" fill="#003ce0"/>
      <path id="Path_24" data-name="Path 24" d="M380.283,193.31c2.058-7.672,10.585-14.07,18.263-14.07s12.358,6.393,10.3,14.07-10.276,14.5-17.954,14.5S378.225,200.988,380.283,193.31Z" transform="translate(-153.942 -72.648)" fill="#003ce0"/>
      <path id="Path_25" data-name="Path 25" d="M396.228,133.8c2.058-7.677,10.591-14.07,18.263-14.07s12.358,6.4,10.3,14.07-10.163,14.07-17.841,14.07S394.17,141.472,396.228,133.8Z" transform="translate(-160.407 -48.528)" fill="#003ce0"/>
      <path id="Path_26" data-name="Path 26" d="M622.084,180.131c-5.287,3.836-12.227,4.264-16.853.85a8.18,8.18,0,0,1-3.515-5.971c-.482-2.985.208-5.543.577-8.528a15.63,15.63,0,0,0-3.9-14.07,23.185,23.185,0,0,0-6.648-3.836c-2.331-.85-5-.428-7.446-.85-11.483-1.707-11.519-17.484-.505-25.161,5.6-3.408,11.8-4.264,16.229-1.7s5.614,7.672,4.02,13.642c-2.545,11.091,4.746,20.469,15.831,20.469,13.214,0,14.73,16.628,2.212,25.155Z" transform="translate(-233.297 -48.383)" fill="#003ce0"/>
      <path id="Path_27" data-name="Path 27" d="M718.04,417.98c-7.683,0-15.795,6.4-17.954,14.493a12.773,12.773,0,0,0-.3,5.667c.333,1.748,1.4,3.122,2.2,4.674,1.166,2.26.856,4.621.214,6.994a17.516,17.516,0,0,1-2.8,5.846c-1.326,1.784-3.158,2.991-4.633,4.633a18.565,18.565,0,0,0-4.169,7.576c-2.052,7.672,2.628,14.07,10.306,14.07,8.1,0,15.771-6.4,17.835-14.07a13.16,13.16,0,0,0,.077-6.762c-.6-2.2-2.42-4.109-2.86-6.452-.833-4.43,1.719-9.283,5.192-11.93a20.772,20.772,0,0,0,4.282-4.413,18.179,18.179,0,0,0,2.8-5.828c2.159-8.1-2.087-14.493-10.181-14.493Z" transform="translate(-279.709 -169.411)" fill="#003ce0"/>
      <path id="Path_28" data-name="Path 28" d="M759.556,238.76c-7.672,0-15.783,6.387-17.954,14.493a12.222,12.222,0,0,0,1.314,9.729c1.85,2.932,2.147,5.049.9,8.373a19.613,19.613,0,0,1-5.661,7.88,18.847,18.847,0,0,0-1.713,1.665,18.5,18.5,0,0,0-4.323,7.737,12.788,12.788,0,0,0-.172,6.3c.5,2.016,1.951,3.277,2.658,5.15.69,1.832.226,4.306-.268,6.137a17.288,17.288,0,0,1-1.213,3.176,17,17,0,0,1-4.311,5.233,21.166,21.166,0,0,0-2.468,2.486,17.982,17.982,0,0,0-3.711,6.91c-2.171,8.1,2.51,14.493,10.181,14.493,8.1,0,15.783-6.4,17.954-14.493a12.169,12.169,0,0,0-.3-7.315c-.886-2.444-3-4.472-2.932-7.184a14.288,14.288,0,0,1,2.272-6.542c1.594-2.777,4.1-4.377,6.226-6.637a18.7,18.7,0,0,0,4.21-7.707c.868-3.229.868-6.672-1.023-9.551a8.277,8.277,0,0,1-1.766-3.527,13.461,13.461,0,0,1,2.379-8.926c1.736-2.634,4.4-4.151,6.351-6.548a18.522,18.522,0,0,0,3.55-6.833c2.171-8.112-2.087-14.493-10.181-14.493Z" transform="translate(-292.674 -96.772)" fill="#003ce0"/>
      <path id="Path_29" data-name="Path 29" d="M798.808,193.31c-2.171,8.1-9.854,14.5-17.954,14.5-7.677,0-12.358-6.4-10.187-14.5,2.058-7.672,10.163-14.07,17.841-14.07C796.608,179.24,800.86,185.633,798.808,193.31Z" transform="translate(-312.141 -72.648)" fill="#003ce0"/>
      <path id="Path_30" data-name="Path 30" d="M814.784,133.8c-2.058,7.672-9.735,14.07-17.835,14.07-7.671,0-12.358-6.4-10.3-14.07,2.171-8.1,10.169-14.07,17.841-14.07C812.59,119.73,816.961,125.7,814.784,133.8Z" transform="translate(-318.638 -48.528)" fill="#003ce0"/>
      <path id="Path_31" data-name="Path 31" d="M818.7,14.07C820.755,6.4,828.861,0,836.538,0c8.1,0,12.352,6.4,10.3,14.07-2.171,8.1-9.854,14.5-17.954,14.5-7.677,0-12.358-6.4-10.187-14.5Z" transform="translate(-331.608)" fill="#003ce0"/>
      <path id="Path_32" data-name="Path 32" d="M931.286,479c-5.721,3.836-12.536,3.836-16.741.428a9.464,9.464,0,0,1-3.289-6.821c-.476-2.985.636-5.543.892-8.1.636-5.543-.981-10.663-4.758-14.07-1.671-1.707-4-2.557-6.762-3.414-2.444-.428-5-.428-7.445-.85-10.936-2.135-10.55-17.906,1.2-25.155,5.18-3.408,11.686-3.836,15.694-1.279,4.311,2.985,5.192,7.671,3.7,13.22-2.658,11.513,4.752,20.463,15.724,20.892,13.214,0,14.612,17.056,1.784,25.155Z" transform="translate(-358.805 -169.458)" fill="#003ce0"/>
      <path id="Path_33" data-name="Path 33" d="M979.316,299.756c-5.721,3.836-12.536,3.836-16.741.428-1.79-1.279-2.807-3.836-3.4-6.4-.054-2.985.63-5.543,1.005-8.528.636-5.543-.981-10.663-4.758-14.07-1.671-1.7-4-2.557-6.762-3.408-2.444-.428-5-.428-7.446-.856-10.936-2.135-10.55-17.906,1.2-25.155,5.18-3.414,11.686-3.836,15.694-1.279,4.311,2.985,5.192,7.671,3.7,13.214-2.658,11.513,4.752,20.463,15.724,20.892,13.214,0,14.612,17.056,1.784,25.155Z" transform="translate(-378.272 -96.805)" fill="#003ce0"/>
      <path id="Path_34" data-name="Path 34" d="M1014.36,144.885c-5.721,3.836-11.769,2.557-17.882,4.686a31.9,31.9,0,0,0-14.594,11.513c-3.5,5.114-3.824,11.085-8.064,15.771s-10.467,7.249-15.783,6.4c-11.483-1.707-11.632-17.056-.625-24.727,6.262-4.264,11.347-2.557,17.454-4.686a31.617,31.617,0,0,0,14.683-10.235,37.746,37.746,0,0,0,4.841-8.528,18.054,18.054,0,0,1,3.223-7.249,18.633,18.633,0,0,1,14.963-8.1c13.214,0,14.611,17.056,1.784,25.161Z" transform="translate(-384.753 -48.528)" fill="#003ce0"/>
      <path id="Path_35" data-name="Path 35" d="M1013.722,510.63c-2.058,7.672-10.163,14.07-18.263,14.07-7.671,0-12.358-6.4-10.3-14.07s10.169-14.07,17.841-14.07C1011.1,496.56,1015.78,502.953,1013.722,510.63Z" transform="translate(-399.096 -201.26)" fill="#003ce0"/>
      <path id="Path_36" data-name="Path 36" d="M1065.423,313.04c-2.058,7.671-10.163,14.07-18.263,14.07-7.672,0-12.358-6.4-10.3-14.07s10.169-14.07,17.841-14.07C1062.8,298.97,1067.48,305.369,1065.423,313.04Z" transform="translate(-420.05 -121.175)" fill="#003ce0"/>
      <path id="Path_37" data-name="Path 37" d="M1114.061,443.141c-5.834,4.264-11.769,2.557-18.311,4.692a35.483,35.483,0,0,0-14.707,11.935c-3.5,5.114-3.711,10.663-8.064,15.771-4.24,4.692-10.467,7.249-15.783,6.4-11.483-1.707-11.519-17.478-.505-25.155,5.715-3.842,10.919-2.563,16.491-4.264,5.882-1.279,11.174-5.12,14.992-9.806a27.748,27.748,0,0,0,5.269-8.528,20.1,20.1,0,0,1,3.336-7.677c3.5-5.114,9.527-8.528,15.076-8.528,13.214,0,14.611,17.056,2.212,25.155Z" transform="translate(-424.967 -169.411)" fill="#003ce0"/>
      <path id="Path_38" data-name="Path 38" d="M1117.112,111.78c-2.058,7.672-10.163,14.07-18.263,14.07-7.671,0-12.358-6.4-10.3-14.07s10.169-14.07,17.841-14.07C1114.49,97.71,1119.17,104.109,1117.112,111.78Z" transform="translate(-441.001 -39.603)" fill="#003ce0"/>
      <path id="Path_39" data-name="Path 39" d="M1142.463,359.791c-5.608,3.414-12.542,3.842-16.741.428a12.012,12.012,0,0,1-3.289-6.821c-.279-2.135.4-4.692,1.088-7.249.63-5.543-.553-10.657-3.907-14.07a12.04,12.04,0,0,0-6.53-4.264c-2.331-.856-5.429-.428-7.868-.856-11.484-1.707-11.519-17.478-.505-25.155,5.6-3.413,11.8-4.264,16.229-1.707s5.614,7.671,4.133,13.214c-2.658,11.513,4.633,20.892,15.717,20.892,13.214,0,14.5,17.484,1.671,25.584Z" transform="translate(-444.431 -121.029)" fill="#003ce0"/>
      <path id="Path_40" data-name="Path 40" d="M1152.7,122.593c5.715-3.836,12.649-4.264,16.854-.85a7.534,7.534,0,0,1,3.949,5.971c.476,2.985-.208,5.543-.583,8.528a15.63,15.63,0,0,0,3.9,14.07,23.048,23.048,0,0,0,6.649,3.836c2.759.856,5.43.428,7.874.856,11.251,2.557,10.859,18.334-.886,25.584-5.18,3.408-11.686,3.836-15.575.85-4.431-2.557-5.192-7.672-3.824-12.792,2.658-11.513-4.633-20.891-15.718-20.891-13.214,0-14.731-16.628-2.635-25.161Z" transform="translate(-463.862 -48.405)" fill="#003ce0"/>
      <path id="Path_41" data-name="Path 41" d="M1331.406,480.841c-5.721,3.836-12.536,3.836-16.741.428a9.464,9.464,0,0,1-3.289-6.821c-.476-2.985.636-5.543.892-8.1.636-5.543-.981-10.663-4.757-14.07-1.671-1.707-4-2.557-6.762-3.414-2.444-.428-5-.428-7.445-.85-10.937-2.135-10.55-17.906,1.2-25.155,5.18-3.408,11.686-3.836,15.694-1.279,4.311,2.985,5.192,7.671,3.7,13.22-2.658,11.513,4.752,20.463,15.724,20.892,13.214,0,14.611,17.056,1.784,25.155Z" transform="translate(-520.977 -170.204)" fill="#003ce0"/>
      <path id="Path_42" data-name="Path 42" d="M1379.436,301.6c-5.721,3.836-12.536,3.836-16.74.428-1.79-1.279-2.807-3.836-3.4-6.4-.053-2.985.63-5.543,1.005-8.528.636-5.543-.981-10.663-4.758-14.07-1.671-1.7-4-2.557-6.762-3.408-2.444-.428-5-.428-7.445-.856-10.937-2.135-10.55-17.906,1.2-25.155,5.18-3.414,11.686-3.836,15.694-1.279,4.312,2.985,5.192,7.672,3.705,13.214-2.658,11.513,4.751,20.463,15.723,20.892,13.214,0,14.612,17.056,1.784,25.155Z" transform="translate(-540.444 -97.551)" fill="#003ce0"/>
      <path id="Path_43" data-name="Path 43" d="M1414.48,146.725c-5.721,3.836-11.769,2.557-17.882,4.686A31.9,31.9,0,0,0,1382,162.925c-3.5,5.114-3.824,11.085-8.064,15.771s-10.467,7.249-15.783,6.4c-11.483-1.707-11.632-17.056-.625-24.727,6.262-4.264,11.347-2.557,17.454-4.686a31.616,31.616,0,0,0,14.683-10.235,37.75,37.75,0,0,0,4.841-8.528,18.051,18.051,0,0,1,3.223-7.249,18.633,18.633,0,0,1,14.963-8.1c13.214,0,14.611,17.056,1.784,25.161Z" transform="translate(-546.926 -49.273)" fill="#003ce0"/>
      <path id="Path_44" data-name="Path 44" d="M1413.842,512.47c-2.058,7.671-10.163,14.07-18.263,14.07-7.672,0-12.358-6.4-10.3-14.07s10.169-14.07,17.841-14.07c8.1,0,12.78,6.393,10.722,14.07Z" transform="translate(-561.268 -202.006)" fill="#003ce0"/>
      <path id="Path_45" data-name="Path 45" d="M1465.542,314.88c-2.058,7.672-10.163,14.07-18.263,14.07-7.672,0-12.358-6.4-10.3-14.07s10.169-14.07,17.841-14.07C1462.92,300.81,1467.6,307.209,1465.542,314.88Z" transform="translate(-582.222 -121.921)" fill="#003ce0"/>
      <path id="Path_46" data-name="Path 46" d="M1514.182,444.971c-5.834,4.264-11.769,2.557-18.311,4.692a35.484,35.484,0,0,0-14.707,11.935c-3.5,5.114-3.711,10.663-8.064,15.771-4.24,4.692-10.467,7.249-15.783,6.4-11.483-1.707-11.519-17.478-.505-25.155,5.715-3.842,10.918-2.563,16.491-4.264,5.882-1.279,11.174-5.12,14.992-9.806a27.751,27.751,0,0,0,5.269-8.528,20.1,20.1,0,0,1,3.336-7.677c3.5-5.114,9.527-8.528,15.075-8.528,13.214,0,14.612,17.056,2.212,25.155Z" transform="translate(-587.14 -170.153)" fill="#003ce0"/>
      <path id="Path_47" data-name="Path 47" d="M1517.233,113.61c-2.058,7.672-10.163,14.07-18.263,14.07-7.672,0-12.358-6.4-10.3-14.07s10.169-14.07,17.841-14.07C1514.61,99.54,1519.29,105.939,1517.233,113.61Z" transform="translate(-603.173 -40.344)" fill="#003ce0"/>
      <path id="Path_48" data-name="Path 48" d="M1542.583,361.631c-5.608,3.414-12.542,3.842-16.741.428a12.012,12.012,0,0,1-3.289-6.821c-.28-2.135.4-4.692,1.088-7.249.63-5.543-.553-10.657-3.907-14.07a12.039,12.039,0,0,0-6.53-4.264c-2.331-.856-5.43-.428-7.868-.856-11.484-1.707-11.519-17.478-.506-25.155,5.6-3.414,11.8-4.264,16.229-1.707s5.614,7.672,4.133,13.214c-2.658,11.513,4.632,20.891,15.718,20.891,13.214,0,14.5,17.484,1.671,25.584Z" transform="translate(-606.603 -121.775)" fill="#003ce0"/>
      <path id="Path_49" data-name="Path 49" d="M1552.83,124.423c5.715-3.836,12.649-4.264,16.854-.85a7.535,7.535,0,0,1,3.949,5.971c.476,2.985-.208,5.543-.583,8.528a15.63,15.63,0,0,0,3.9,14.07,23.046,23.046,0,0,0,6.649,3.836c2.759.856,5.429.428,7.874.856,11.251,2.557,10.859,18.334-.886,25.584-5.18,3.408-11.686,3.836-15.575.85-4.43-2.557-5.192-7.671-3.824-12.792,2.658-11.513-4.633-20.891-15.718-20.891-13.214,0-14.73-16.628-2.635-25.161Z" transform="translate(-626.038 -49.147)" fill="#003ce0"/>
      <path id="Path_50" data-name="Path 50" d="M1736.6,479c-5.721,3.836-12.536,3.836-16.741.428a9.465,9.465,0,0,1-3.289-6.821c-.476-2.985.636-5.543.892-8.1.636-5.543-.981-10.663-4.758-14.07a23.543,23.543,0,0,0-6.761-3.414c-2.444-.428-5-.428-7.445-.85-10.937-2.135-10.55-17.906,1.2-25.155,5.18-3.408,11.686-3.836,15.694-1.279,4.311,2.985,5.191,7.671,3.7,13.22-2.658,11.513,4.752,20.463,15.724,20.892,13.214,0,14.611,17.056,1.784,25.155Z" transform="translate(-685.204 -169.458)" fill="#003ce0"/>
      <path id="Path_51" data-name="Path 51" d="M1706.5,372.55c2.058-7.677,10.586-14.07,18.263-14.07s12.358,6.4,10.3,14.07-10.276,14.5-17.954,14.5S1704.445,380.228,1706.5,372.55Z" transform="translate(-691.471 -145.295)" fill="#003ce0"/>
      <path id="Path_52" data-name="Path 52" d="M1722.448,313.04c2.058-7.677,10.592-14.07,18.263-14.07s12.358,6.4,10.3,14.07-10.163,14.07-17.841,14.07S1720.39,320.712,1722.448,313.04Z" transform="translate(-697.936 -121.175)" fill="#003ce0"/>
      <path id="Path_53" data-name="Path 53" d="M1738.4,253.239c2.171-8.1,10.7-14.5,18.382-14.5s12.352,6.4,10.181,14.5c-2.058,7.671-10.163,14.07-17.841,14.07S1736.34,260.91,1738.4,253.239Z" transform="translate(-704.401 -96.764)" fill="#003ce0"/>
      <path id="Path_54" data-name="Path 54" d="M1819.2,145.318c-6.143,3.836-12.084,2.135-18.31,4.692a30.6,30.6,0,0,0-15.052,13.22c-2.646,5.114-3.17,10.235-7.719,14.5-4.668,4.686-10.782,6.821-15.979,5.543-10.71-2.985-9.468-18.762,2.165-25.584,5.6-3.414,10.377-2.135,15.949-3.836a31.617,31.617,0,0,0,14.683-10.235,37.745,37.745,0,0,0,4.841-8.528,18.054,18.054,0,0,1,3.223-7.249,18.633,18.633,0,0,1,14.962-8.1c13.642,0,14.386,17.906,1.243,25.584Z" transform="translate(-711.234 -48.532)" fill="#003ce0"/>
      <path id="Path_55" data-name="Path 55" d="M1819.022,512.47c-2.058,7.671-10.163,14.07-18.263,14.07-7.672,0-12.358-6.4-10.3-14.07s10.169-14.07,17.841-14.07c8.1,0,12.78,6.393,10.722,14.07Z" transform="translate(-725.491 -202.006)" fill="#003ce0"/>
      <path id="Path_56" data-name="Path 56" d="M1918.833,443.564c-5.721,3.836-11.656,2.135-17.769,4.264a32.341,32.341,0,0,0-15.361,12.792c-3.075,5.12-3.283,10.663-7.951,15.349a18.654,18.654,0,0,1-16.092,5.971c-10.823-2.557-10.437-18.334,1.308-25.584,5.18-3.413,9.949-2.135,15.527-3.836,5.882-1.279,11.174-5.12,14.992-9.806a27.749,27.749,0,0,0,5.269-8.528,20.093,20.093,0,0,1,3.336-7.677c3.5-5.114,9.527-8.528,15.075-8.528,13.214,0,14.5,17.478,1.671,25.584Z" transform="translate(-751.376 -169.411)" fill="#003ce0"/>
      <path id="Path_57" data-name="Path 57" d="M1924.252,113.61c-2.058,7.672-10.163,14.07-18.263,14.07-7.672,0-12.358-6.4-10.3-14.07s10.169-14.07,17.841-14.07C1921.63,99.54,1926.31,105.939,1924.252,113.61Z" transform="translate(-768.142 -40.344)" fill="#003ce0"/>
      <path id="Path_58" data-name="Path 58" d="M1974.065,372.55c-2.058,7.672-10.282,14.5-17.953,14.5s-12.245-6.821-10.187-14.5,10.169-14.07,17.841-14.07S1976.116,364.879,1974.065,372.55Z" transform="translate(-788.499 -145.295)" fill="#003ce0"/>
      <path id="Path_59" data-name="Path 59" d="M1958.006,122.593c5.715-3.836,12.649-4.264,16.854-.85a7.535,7.535,0,0,1,3.949,5.971c.476,2.985-.208,5.543-.583,8.528a15.629,15.629,0,0,0,3.9,14.07,23.048,23.048,0,0,0,6.649,3.836c2.331.856,5,.428,7.446.856,11.477,1.707,11.519,17.478.077,25.155-5.174,3.408-11.37,4.264-15.807,1.707s-5.614-7.677-4.133-13.22c2.658-11.513-4.633-20.891-15.718-20.891C1947.426,147.754,1945.91,131.127,1958.006,122.593Z" transform="translate(-790.257 -48.405)" fill="#003ce0"/>
      <path id="Path_60" data-name="Path 60" d="M1990.014,313.04c-2.058,7.671-10.163,14.07-17.835,14.07s-12.358-6.4-10.3-14.07,10.169-14.07,17.841-14.07,12.352,6.4,10.294,14.07Z" transform="translate(-794.969 -121.175)" fill="#003ce0"/>
      <path id="Path_61" data-name="Path 61" d="M2005.964,253.239c-2.058,7.671-10.163,14.07-17.835,14.07s-12.358-6.4-10.3-14.07c2.171-8.1,10.282-14.5,17.954-14.5S2008.135,245.139,2005.964,253.239Z" transform="translate(-801.434 -96.764)" fill="#003ce0"/>
      <path id="Path_62" data-name="Path 62" d="M2122.381,492.28c-2.058,7.672-10.163,14.07-17.841,14.07s-12.78-6.4-10.722-14.07,10.586-14.07,18.263-14.07,12.358,6.393,10.3,14.07Z" transform="translate(-848.456 -193.823)" fill="#003ce0"/>
      <path id="Path_63" data-name="Path 63" d="M2138.331,432.479c-2.058,7.671-10.164,14.07-17.841,14.07s-12.78-6.4-10.722-14.07c2.17-8.1,10.7-14.5,18.376-14.5s12.357,6.393,10.187,14.5Z" transform="translate(-854.921 -169.411)" fill="#003ce0"/>
      <path id="Path_64" data-name="Path 64" d="M2153.65,298.98c-7.672,0-16.211,6.4-18.275,14.07a12.572,12.572,0,0,0-.077,6.4c.518,1.968,2.052,3.39,2.765,5.263,1.207,3.164.184,6.785-1.51,9.569-2.016,3.307-5.483,5.334-7.779,8.409a16.973,16.973,0,0,0-2.872,5.739c-2.064,7.672,2.938,14.493,10.609,14.493s15.89-6.821,17.954-14.493a11.549,11.549,0,0,0-.214-6.934c-.726-2.034-2.367-3.645-2.9-5.763-1.106-4.407,1.832-8.611,4.657-11.686,3.247-3.538,6.607-6.1,7.927-11,2.064-7.672-2.623-14.07-10.294-14.07Z" transform="translate(-861.457 -121.179)" fill="#003ce0"/>
      <path id="Path_65" data-name="Path 65" d="M2274.624,138.493a20.449,20.449,0,0,1-11.775,8.956c-4.609,1.279-8.641.428-13.363,2.129a33.032,33.032,0,0,0-14.172,11.513c-3.5,5.114-3.824,11.085-8.064,15.771-4.359,5.12-9.39,6.4-15.046,6.821-5.542,0-11.882,2.985-16.324,6.821-4.549,4.264-7.939,8.956-9.426,14.5a19.936,19.936,0,0,1-11.954,12.792c-12.459,5.114-21.427-5.971-14.5-17.484a21.043,21.043,0,0,1,14.992-9.806c5.233-.428,10.038-.85,15.64-4.264,5.174-3.414,9.533-8.528,11.442-14.07,1.225-2.985,1.909-5.543,3.449-8.1a16.2,16.2,0,0,1,6.286-5.971c5.6-3.408,10.49-2.563,15.528-3.836a31.875,31.875,0,0,0,15.527-10.235,34.346,34.346,0,0,0,4.728-8.1c1.225-2.985,1.48-5.543,3.449-8.1a18.641,18.641,0,0,1,14.962-8.1c9.807,0,14.118,9.378,8.617,18.763Z" transform="translate(-874.488 -48.528)" fill="#003ce0"/>
      <path id="Path_66" data-name="Path 66" d="M2173.923,193.31c2.058-7.672,10.586-14.07,18.263-14.07s12.358,6.393,10.3,14.07-10.282,14.5-17.954,14.5S2171.865,200.988,2173.923,193.31Z" transform="translate(-880.92 -72.648)" fill="#003ce0"/>
      <path id="Path_67" data-name="Path 67" d="M2189.867,133.8c2.058-7.677,10.592-14.07,18.263-14.07s12.358,6.4,10.3,14.07-10.163,14.07-17.841,14.07S2187.81,141.472,2189.867,133.8Z" transform="translate(-887.386 -48.528)" fill="#003ce0"/>
      <path id="Path_68" data-name="Path 68" d="M2370.17,358.48c-7.671,0-15.783,6.4-17.834,14.07a13.325,13.325,0,0,0-.351,5.513c.47,3.164,2.854,5.566,3.069,8.861.38,5.971-4.859,10-8.362,14.035-3.134,3.616-5.269,8.73-4.157,13.541.8,3.461,3.015,5.822,2.664,9.592a15.368,15.368,0,0,1-4.906,9.515c-3.122,2.95-5.881,5.864-7.035,10.139-2.064,7.672,2.622,14.07,10.294,14.07s15.783-6.4,17.846-14.07a12,12,0,0,0-.125-7.029c-1.011-2.9-3-4.811-2.9-8.135.28-8.552,10.371-12.257,12.494-20.219,1.053-3.967-.083-7.41-1.85-11.02-1.885-3.859-.511-8.3,1.76-11.727,1.439-2.171,3.764-3.473,5.447-5.412a19.719,19.719,0,0,0,4.235-7.654c2.063-7.671-2.617-14.07-10.294-14.07Z" transform="translate(-945.491 -145.295)" fill="#003ce0"/>
      <path id="Path_69" data-name="Path 69" d="M2392.6,153.338a13.557,13.557,0,0,0-6.845-4.692c-2.331-.85-5.429-.428-7.868-.85-12.333-1.707-11.489-19.191,1.421-26.012,5.489-2.985,11.888-2.985,15.777,0a11.976,11.976,0,0,1,3.289,6.821c.167,2.563-.518,5.12-.779,7.671a15.628,15.628,0,0,0,3.9,14.07,23.051,23.051,0,0,0,6.648,3.836c2.331.856,5,.428,7.446.856,11.477,1.707,11.519,17.478.077,25.155-11.008,7.672-23.246.85-20.047-11.091,1.6-5.971.642-11.935-3.021-15.771Z" transform="translate(-960.222 -48.453)" fill="#003ce0"/>
      <path id="Path_70" data-name="Path 70" d="M2409.414,313.04c-2.057,7.671-10.163,14.07-17.835,14.07s-12.358-6.4-10.3-14.07,10.169-14.07,17.841-14.07S2411.472,305.369,2409.414,313.04Z" transform="translate(-964.956 -121.175)" fill="#003ce0"/>
      <path id="Path_71" data-name="Path 71" d="M2425.354,253.239c-2.058,7.671-10.163,14.07-17.835,14.07s-12.358-6.4-10.3-14.07c2.171-8.1,10.282-14.5,17.954-14.5S2427.525,245.139,2425.354,253.239Z" transform="translate(-971.416 -96.764)" fill="#003ce0"/>
    </g>
    <g id="FRISSON_-_REBRAND_-_FINAL-08" data-name="FRISSON - REBRAND - FINAL-08" transform="translate(553.773 702.535)">
      <g id="Group_1" data-name="Group 1" transform="translate(-0.002 34.983)">
        <path id="Path_76" data-name="Path 76" d="M26,45.421c2.033-7.6,9.643-13.931,17.664-13.931,7.6,0,12.231,6.332,10.2,13.931C51.723,53.442,43.8,59.352,36.2,59.352c-8.021,0-12.342-5.91-10.2-13.931Z" transform="translate(2.826 -31.49)" fill="#003ce0"/>
        <path id="Path_77" data-name="Path 77" d="M17.555,76.961c2.033-7.6,9.643-13.931,17.664-13.931,7.6,0,12.231,6.332,10.2,13.931-2.144,8.021-10.176,14.353-17.775,14.353-8.021,0-12.231-6.332-10.087-14.353Z" transform="translate(1.888 -27.991)" fill="#003ce0"/>
        <path id="Path_78" data-name="Path 78" d="M8.991,108.923C11.135,100.9,18.745,94.57,26.766,94.57c7.6,0,12.231,6.332,10.087,14.353-2.033,7.6-10.065,13.931-17.664,13.931-8.021,0-12.231-6.332-10.2-13.931Z" transform="translate(0.943 -24.493)" fill="#003ce0"/>
        <path id="Path_79" data-name="Path 79" d="M.545,140.411c2.033-7.6,9.643-13.931,17.664-13.931,7.6,0,12.231,6.332,10.2,13.931-2.155,8.021-10.065,13.931-17.664,13.931-8.021,0-12.342-5.91-10.2-13.931Z" transform="translate(0.002 -20.953)" fill="#003ce0"/>
      </g>
      <path id="Path_80" data-name="Path 80" d="M98.909,13.931c-2.155,8.021-10.176,14.353-18.2,14.353-11.4,0-23.6,9.287-26.762,21.108-2.033,7.6-9.643,13.931-17.664,13.931-7.6,0-12.231-6.332-10.2-13.931,2.144-8.021,10.176-14.353,17.775-14.353,11.82,0,23.6-9.287,26.762-21.108C72.658,6.332,80.69,0,88.289,0c8.021,0,12.653,6.332,10.62,13.931Z" transform="translate(2.841 0)" fill="#003ce0"/>
    </g>
    <g id="FRISSON_-_REBRAND_-_FINAL-07" data-name="FRISSON - REBRAND - FINAL-07" transform="translate(386.488 236)">
      <path id="Path_72" data-name="Path 72" d="M26.012,14.127C28.074,6.422,35.791,0,43.925,0c7.706,0,12.4,6.422,10.342,14.127C52.093,22.261,44.06,28.255,36.354,28.255c-8.134,0-12.516-5.993-10.342-14.127Z" transform="translate(3.223)" fill="#003ce0"/>
      <path id="Path_73" data-name="Path 73" d="M17.563,45.667c2.062-7.706,9.779-14.127,17.913-14.127,7.706,0,12.4,6.422,10.342,14.127C43.644,53.8,35.5,60.223,27.793,60.223c-8.134,0-12.4-6.422-10.229-14.555Z" transform="translate(2.152 3.992)" fill="#003ce0"/>
      <path id="Path_74" data-name="Path 74" d="M9,77.635C11.172,69.5,18.889,63.08,27.023,63.08c7.706,0,12.4,6.422,10.229,14.555C35.191,85.341,27.046,91.763,19.34,91.763c-8.134,0-12.4-6.422-10.342-14.127Z" transform="translate(1.074 7.985)" fill="#003ce0"/>
      <path id="Path_75" data-name="Path 75" d="M.552,109.117c2.062-7.706,9.779-14.127,17.913-14.127,7.706,0,12.4,6.422,10.342,14.127-2.186,8.134-10.207,14.127-17.913,14.127-8.134,0-12.516-5.993-10.342-14.127Z" transform="translate(0 12.024)" fill="#003ce0"/>
    </g>
    <g id="FRISSON_-_REBRAND_-_FINAL-09" data-name="FRISSON - REBRAND - FINAL-09" transform="translate(1125.001 223.938)">
      <path id="Path_81" data-name="Path 81" d="M28.438,172.429c-2.04,7.625-9.676,13.979-17.725,13.979-7.625,0-12.274-6.354-10.233-13.979,2.151-8.049,10.1-13.979,17.725-13.979C26.253,158.45,30.589,164.381,28.438,172.429Z" transform="translate(0 18.184)" fill="#003ce0"/>
      <path id="Path_82" data-name="Path 82" d="M36.888,140.933c-2.04,7.625-9.676,13.979-17.725,13.979-7.625,0-12.274-6.354-10.233-13.979,2.151-8.049,10.211-14.4,17.836-14.4C34.814,126.53,39.039,132.884,36.888,140.933Z" transform="translate(0.97 14.521)" fill="#003ce0"/>
      <path id="Path_83" data-name="Path 83" d="M45.442,108.979c-2.151,8.049-9.788,14.4-17.836,14.4-7.625,0-12.274-6.354-10.122-14.4C19.524,101.354,27.584,95,35.209,95,43.257,95,47.482,101.354,45.442,108.979Z" transform="translate(1.946 10.902)" fill="#003ce0"/>
      <path id="Path_84" data-name="Path 84" d="M53.888,77.439c-2.04,7.625-9.676,13.979-17.725,13.979-7.625,0-12.274-6.354-10.233-13.979,2.163-8.049,10.1-13.979,17.725-13.979C51.7,63.46,56.039,69.391,53.888,77.439Z" transform="translate(2.921 7.283)" fill="#003ce0"/>
      <path id="Path_85" data-name="Path 85" d="M62.338,45.943c-2.04,7.625-9.676,13.979-17.725,13.979-7.625,0-12.274-6.354-10.233-13.979,2.151-8.049,10.211-14.4,17.836-14.4C60.264,31.54,64.489,37.894,62.338,45.943Z" transform="translate(3.89 3.62)" fill="#003ce0"/>
      <path id="Path_86" data-name="Path 86" d="M70.9,13.979c-2.163,8.049-9.788,14.4-17.836,14.4-7.625,0-12.274-6.354-10.122-14.4C44.984,6.354,53.044,0,60.669,0,68.717,0,72.942,6.354,70.9,13.979Z" transform="translate(4.868 0)" fill="#003ce0"/>
    </g>
    <g id="FRISSON_-_REBRAND_-_FINAL-10" data-name="FRISSON - REBRAND - FINAL-10" transform="translate(1560.001 697.475)">
      <path id="Path_87" data-name="Path 87" d="M27.807,172.119c-1.995,7.456-9.462,13.669-17.332,13.669-7.456,0-12-6.213-10.007-13.669,2.1-7.87,9.876-13.669,17.332-13.669C25.67,158.45,29.911,164.249,27.807,172.119Z" transform="translate(0 14.266)" fill="#003ce0"/>
      <path id="Path_88" data-name="Path 88" d="M36.257,140.613c-1.995,7.456-9.462,13.669-17.332,13.669-7.456,0-12-6.213-10.007-13.669,2.1-7.87,9.985-14.083,17.441-14.083C34.23,126.53,38.361,132.743,36.257,140.613Z" transform="translate(0.761 11.392)" fill="#003ce0"/>
      <path id="Path_89" data-name="Path 89" d="M44.811,108.669c-2.1,7.87-9.571,14.083-17.441,14.083-7.456,0-12-6.213-9.9-14.083C19.467,101.213,27.348,95,34.8,95,42.674,95,46.805,101.213,44.811,108.669Z" transform="translate(1.527 8.554)" fill="#003ce0"/>
      <path id="Path_90" data-name="Path 90" d="M53.257,77.129C51.262,84.585,43.8,90.8,35.925,90.8c-7.456,0-12-6.213-10.007-13.669,2.115-7.87,9.876-13.669,17.332-13.669C51.12,63.46,55.361,69.259,53.257,77.129Z" transform="translate(2.291 5.714)" fill="#003ce0"/>
      <path id="Path_91" data-name="Path 91" d="M61.707,45.623c-1.995,7.456-9.462,13.669-17.332,13.669-7.456,0-12-6.213-10.007-13.669,2.1-7.87,9.985-14.083,17.441-14.083,7.87,0,12,6.213,9.9,14.083Z" transform="translate(3.052 2.84)" fill="#003ce0"/>
      <path id="Path_92" data-name="Path 92" d="M70.271,13.669C68.156,21.539,60.7,27.752,52.83,27.752c-7.456,0-12-6.213-9.9-14.083C44.927,6.213,52.808,0,60.264,0c7.87,0,12,6.213,10.007,13.669Z" transform="translate(3.819 0)" fill="#003ce0"/>
    </g>
  </g>
</svg>
