<?xml version="1.0" encoding="UTF-8"?>
<svg id="Layer_1" data-name="Layer 1" xmlns="http://www.w3.org/2000/svg" viewBox="0 0 1080 1080">
  <defs>
    <style>
      .cls-1 {
        fill: #003ce0;
      }
    </style>
  </defs>
  <path class="cls-1" d="M406.23,858.98c-4.61,17.21-21.84,31.56-40.01,31.56-17.21,0-27.72-14.35-23.11-31.56,4.87-18.17,22.81-31.56,40.02-31.56,18.17,0,27.97,13.39,23.1,31.56Z"/>
  <path class="cls-1" d="M427.5,779.59c-4.61,17.21-21.84,31.56-40.01,31.56-17.21,0-27.72-14.35-23.11-31.56,4.87-18.18,23.06-32.52,40.28-32.52,18.17,0,27.71,14.34,22.84,32.52Z"/>
  <path class="cls-1" d="M454.99,380.75c-4.61,17.21-22.8,31.56-40.02,31.56-18.17,0-28.67-14.35-24.06-31.56,4.87-18.18,22.8-31.57,40.97-31.57,17.22,0,27.97,13.39,23.1,31.57Z"/>
  <path class="cls-1" d="M468.73,507.97c-17.21,0-35.41,14.32-40.28,32.52-1.1,4.14-1.35,8.1-.83,11.73.43,3.01,1.58,6.08,3.2,8.75,1.87,3.09,4.05,5.3,4.46,9.04.99,9.03-4.04,18.77-10.24,25.06-3.51,3.56-7.51,6.28-10.59,10.29-3.32,4.31-5.86,9.23-7.28,14.5-1.37,5.09-1.4,9.92-.34,14.2.59,2.34,1.5,4.51,2.69,6.48,2.85,4.69,4.25,10.14,3.29,15.55-.19,1.05-.43,2.13-.72,3.22-1.4,5.26-4.03,10.99-7.84,14.96-3.49,3.64-7.54,6.41-10.69,10.4-3.45,4.38-6.2,9.14-7.67,14.58-4.85,18.17,5.63,32.52,22.85,32.52,18.19,0,35.41-14.35,40.28-32.52,1.52-5.71,1.8-12.23-.46-17.79-1.83-4.49-5.92-7.37-6.69-12.39-.84-5.44,1.39-11.03,4.02-15.69,7.26-12.88,21.42-19.98,24.96-35.44,1.14-4.96,1.1-10.28-.75-15.01-1.23-3.14-3.21-5.94-4.62-9-3.58-7.74-.08-17.67,4.43-24.37,3.76-5.58,9.65-8.72,13.82-13.87,3.65-4.53,6.39-9.72,7.86-15.21,4.87-18.19-4.68-32.52-22.84-32.52Z"/>
  <path class="cls-1" d="M513.1,460.13c-4.87,18.18-22.1,32.52-40.27,32.52-17.21,0-27.72-14.35-22.85-32.52,4.61-17.21,22.8-31.56,40.02-31.56,18.17,0,27.71,14.34,23.1,31.56Z"/>
  <path class="cls-1" d="M534.37,380.75c-4.61,17.21-21.84,31.56-40.01,31.56-17.21,0-27.72-14.35-23.11-31.56,4.87-18.18,22.81-31.57,40.02-31.57,18.17,0,27.97,13.39,23.1,31.57Z"/>
  <path class="cls-1" d="M657.51,221.02c-4.87,18.17-23.06,32.52-41.23,32.52-25.82,0-53.46,21.04-60.64,47.83-4.61,17.21-21.84,31.56-40.01,31.56-17.21,0-27.72-14.34-23.11-31.56,4.87-18.18,23.06-32.52,40.28-32.52,26.78,0,53.46-21.04,60.63-47.82,4.61-17.21,22.8-31.56,40.02-31.56,18.17,0,28.67,14.35,24.06,31.56Z"/>
  <path class="cls-1" d="M614.71,380.75c-4.61,17.21-22.8,31.56-40.97,31.56-17.21,0-27.72-14.35-23.11-31.56,4.87-18.18,22.81-31.57,40.02-31.57,18.17,0,28.93,13.39,24.06,31.57Z"/>
  <path class="cls-1" d="M694.09,380.75c-4.61,17.21-22.8,31.56-40.02,31.56-18.17,0-28.67-14.35-24.06-31.56,4.87-18.18,22.8-31.57,40.97-31.57,17.22,0,27.97,13.39,23.1,31.57Z"/>
  <path class="cls-1" d="M672.82,221.02c4.61-17.21,22.8-31.56,40.97-31.56,17.22,0,27.72,14.35,23.11,31.56-4.87,18.17-23.06,32.52-40.28,32.52-18.17,0-28.67-14.35-23.8-32.52Z"/>
</svg>